<svg width="240" height="240" xmlns="http://www.w3.org/2000/svg">
  <circle cx="40" cy="200" r="3" fill="gray">1:1</circle>
  <circle cx="40" cy="180" r="3" fill="gray">1:2</circle>
  <circle cx="40" cy="160" r="3" fill="gray">1:3</circle>
  <circle cx="40" cy="140" r="5" fill="green">1:4</circle>
  <circle cx="40" cy="120" r="3" fill="gray">1:5</circle>
  <circle cx="40" cy="100" r="3" fill="gray">1:6</circle>
  <circle cx="40" cy="80" r="3" fill="gray">1:7</circle>
  <circle cx="40" cy="60" r="3" fill="gray">1:8</circle>
  <circle cx="40" cy="40" r="3" fill="gray">1:9</circle>
  <circle cx="40" cy="20" r="5" fill="green">1:10</circle>
  <circle cx="60" cy="200" r="3" fill="gray">2:1</circle>
  <circle cx="60" cy="180" r="3" fill="gray">2:2</circle>
  <circle cx="60" cy="160" r="3" fill="gray">2:3</circle>
  <circle cx="60" cy="140" r="5" fill="green">2:4</circle>
  <circle cx="60" cy="120" r="5" fill="green">2:5</circle>
  <circle cx="60" cy="100" r="3" fill="gray">2:6</circle>
  <circle cx="60" cy="80" r="3" fill="gray">2:7</circle>
  <circle cx="60" cy="60" r="3" fill="gray">2:8</circle>
  <circle cx="60" cy="40" r="3" fill="gray">2:9</circle>
  <circle cx="60" cy="20" r="3" fill="gray">2:10</circle>
  <circle cx="80" cy="200" r="3" fill="gray">3:1</circle>
  <circle cx="80" cy="180" r="3" fill="gray">3:2</circle>
  <circle cx="80" cy="160" r="3" fill="gray">3:3</circle>
  <circle cx="80" cy="140" r="3" fill="gray">3:4</circle>
  <circle cx="80" cy="120" r="5" fill="green">3:5</circle>
  <circle cx="80" cy="100" r="5" fill="green">3:6</circle>
  <circle cx="80" cy="80" r="3" fill="gray">3:7</circle>
  <circle cx="80" cy="60" r="3" fill="gray">3:8</circle>
  <circle cx="80" cy="40" r="3" fill="gray">3:9</circle>
  <circle cx="80" cy="20" r="3" fill="gray">3:10</circle>
  <circle cx="100" cy="200" r="3" fill="gray">4:1</circle>
  <circle cx="100" cy="180" r="3" fill="gray">4:2</circle>
  <circle cx="100" cy="160" r="3" fill="gray">4:3</circle>
  <circle cx="100" cy="140" r="3" fill="gray">4:4</circle>
  <circle cx="100" cy="120" r="5" fill="green">4:5</circle>
  <circle cx="100" cy="100" r="5" fill="green">4:6</circle>
  <circle cx="100" cy="80" r="5" fill="green">4:7</circle>
  <circle cx="100" cy="60" r="3" fill="gray">4:8</circle>
  <circle cx="100" cy="40" r="3" fill="gray">4:9</circle>
  <circle cx="100" cy="20" r="3" fill="gray">4:10</circle>
  <circle cx="120" cy="200" r="3" fill="gray">5:1</circle>
  <circle cx="120" cy="180" r="3" fill="gray">5:2</circle>
  <circle cx="120" cy="160" r="3" fill="gray">5:3</circle>
  <circle cx="120" cy="140" r="3" fill="gray">5:4</circle>
  <circle cx="120" cy="120" r="3" fill="gray">5:5</circle>
  <circle cx="120" cy="100" r="3" fill="gray">5:6</circle>
  <circle cx="120" cy="80" r="5" fill="green">5:7</circle>
  <circle cx="120" cy="60" r="5" fill="green">5:8</circle>
  <circle cx="120" cy="40" r="3" fill="gray">5:9</circle>
  <circle cx="120" cy="20" r="3" fill="gray">5:10</circle>
  <circle cx="140" cy="200" r="3" fill="gray">6:1</circle>
  <circle cx="140" cy="180" r="3" fill="gray">6:2</circle>
  <circle cx="140" cy="160" r="3" fill="gray">6:3</circle>
  <circle cx="140" cy="140" r="3" fill="gray">6:4</circle>
  <circle cx="140" cy="120" r="3" fill="gray">6:5</circle>
  <circle cx="140" cy="100" r="5" fill="green">6:6</circle>
  <circle cx="140" cy="80" r="5" fill="green">6:7</circle>
  <circle cx="140" cy="60" r="5" fill="green">6:8</circle>
  <circle cx="140" cy="40" r="5" fill="green">6:9</circle>
  <circle cx="140" cy="20" r="3" fill="gray">6:10</circle>
  <circle cx="160" cy="200" r="3" fill="gray">7:1</circle>
  <circle cx="160" cy="180" r="3" fill="gray">7:2</circle>
  <circle cx="160" cy="160" r="3" fill="gray">7:3</circle>
  <circle cx="160" cy="140" r="3" fill="gray">7:4</circle>
  <circle cx="160" cy="120" r="3" fill="gray">7:5</circle>
  <circle cx="160" cy="100" r="3" fill="gray">7:6</circle>
  <circle cx="160" cy="80" r="5" fill="green">7:7</circle>
  <circle cx="160" cy="60" r="5" fill="green">7:8</circle>
  <circle cx="160" cy="40" r="5" fill="green">7:9</circle>
  <circle cx="160" cy="20" r="5" fill="green">7:10</circle>
  <circle cx="180" cy="200" r="3" fill="gray">8:1</circle>
  <circle cx="180" cy="180" r="3" fill="gray">8:2</circle>
  <circle cx="180" cy="160" r="3" fill="gray">8:3</circle>
  <circle cx="180" cy="140" r="3" fill="gray">8:4</circle>
  <circle cx="180" cy="120" r="3" fill="gray">8:5</circle>
  <circle cx="180" cy="100" r="3" fill="gray">8:6</circle>
  <circle cx="180" cy="80" r="5" fill="green">8:7</circle>
  <circle cx="180" cy="60" r="3" fill="gray">8:8</circle>
  <circle cx="180" cy="40" r="3" fill="gray">8:9</circle>
  <circle cx="180" cy="20" r="3" fill="gray">8:10</circle>
  <circle cx="200" cy="200" r="3" fill="gray">9:1</circle>
  <circle cx="200" cy="180" r="3" fill="gray">9:2</circle>
  <circle cx="200" cy="160" r="3" fill="gray">9:3</circle>
  <circle cx="200" cy="140" r="3" fill="gray">9:4</circle>
  <circle cx="200" cy="120" r="3" fill="gray">9:5</circle>
  <circle cx="200" cy="100" r="3" fill="gray">9:6</circle>
  <circle cx="200" cy="80" r="3" fill="gray">9:7</circle>
  <circle cx="200" cy="60" r="3" fill="gray">9:8</circle>
  <circle cx="200" cy="40" r="3" fill="gray">9:9</circle>
  <circle cx="200" cy="20" r="3" fill="gray">9:10</circle>
  <circle cx="220" cy="200" r="3" fill="gray">10:1</circle>
  <circle cx="220" cy="180" r="3" fill="gray">10:2</circle>
  <circle cx="220" cy="160" r="3" fill="gray">10:3</circle>
  <circle cx="220" cy="140" r="3" fill="gray">10:4</circle>
  <circle cx="220" cy="120" r="3" fill="gray">10:5</circle>
  <circle cx="220" cy="100" r="5" fill="green">10:6</circle>
  <circle cx="220" cy="80" r="5" fill="green">10:7</circle>
  <circle cx="220" cy="60" r="3" fill="gray">10:8</circle>
  <circle cx="220" cy="40" r="3" fill="gray">10:9</circle>
  <circle cx="220" cy="20" r="3" fill="gray">10:10</circle>
  <circle cx="40" cy="140" r="3" fill="red"></circle>
  <circle cx="60" cy="120" r="3" fill="red"></circle>
  <line x1="40" y1="140" x2="60" y2="120" style="stroke:rgb(255,0,0);stroke-width:2"></line>
</svg>
